<svg width="10" height="10" viewBox="0 0 10 10" fill="none" xmlns="http://www.w3.org/2000/svg">
<path d="M4.03226 8.82056C4.03226 9.02108 4.11191 9.21338 4.2537 9.35517C4.39549 9.49696 4.58779 9.57661 4.78831 9.57661C4.98882 9.57661 5.18113 9.49696 5.32291 9.35517C5.4647 9.21338 5.54435 9.02108 5.54435 8.82056V5.54435H8.82056C9.02108 5.54435 9.21338 5.4647 9.35517 5.32291C9.49696 5.18113 9.57661 4.98882 9.57661 4.78831C9.57661 4.58779 9.49696 4.39549 9.35517 4.2537C9.21338 4.11191 9.02108 4.03226 8.82056 4.03226H5.54435V0.756048C5.54435 0.555532 5.4647 0.363228 5.32291 0.221441C5.18113 0.0796549 4.98882 0 4.78831 0C4.58779 0 4.39549 0.0796549 4.2537 0.221441C4.11191 0.363228 4.03226 0.555532 4.03226 0.756048V4.03226H0.756048C0.555532 4.03226 0.363228 4.11191 0.221441 4.2537C0.0796549 4.39549 0 4.58779 0 4.78831C0 4.98882 0.0796549 5.18113 0.221441 5.32291C0.363228 5.4647 0.555532 5.54435 0.756048 5.54435H4.03226V8.82056Z" fill="white"/>
</svg>
